<svg width="43" height="41" viewBox="0 0 43 41" fill="none" xmlns="http://www.w3.org/2000/svg">
<path d="M0.0878906 20.4509C0.0878906 22.3659 0.642874 24.2969 1.63287 26.0139L6.58789 34.5849C8.57089 38.0149 12.2309 40.1269 16.1929 40.1269H26.2209C30.1829 40.1269 33.8439 38.0149 35.8259 34.5849L40.7919 25.9909C42.7709 22.5669 42.7769 18.3489 40.8089 14.9189L35.8309 6.24292C33.8529 2.79592 30.1819 0.670898 26.2089 0.670898H16.2099C12.2339 0.670898 8.5619 2.79889 6.5849 6.24789L1.63287 14.8879C0.642874 16.6039 0.0878906 18.5349 0.0878906 20.4509ZM11.1879 22.0719C10.5449 21.4299 10.1839 20.5579 10.1839 19.6489V19.0079V15.8659C10.1839 14.9839 10.8989 14.2689 11.7809 14.2689H13.3259C14.2079 14.2689 14.9229 14.9839 14.9229 15.8659V19.0079V19.2139L19.3529 23.6439C19.8499 24.1409 20.5039 24.3649 21.2069 24.3649C21.9099 24.3649 22.5649 24.1409 23.0619 23.6439L27.4909 19.2139V15.8659C27.4909 14.9839 28.2059 14.2689 29.0879 14.2689H30.6339C31.5149 14.2689 32.2299 14.9839 32.2299 15.8659V19.6489C32.2299 20.5579 31.8689 21.4299 31.2259 22.0729L30.8909 22.4079L29.6549 23.6439L26.3579 26.9409L25.4659 27.8329C24.6519 28.6469 23.5479 29.1039 22.3969 29.1039H20.0179C18.8659 29.1039 17.7619 28.6469 16.9479 27.8329L16.0559 26.9409L12.7599 23.6439L11.5229 22.4079L11.1879 22.0719ZM17.7559 19.0079C16.8739 19.0079 16.1589 18.2929 16.1589 17.4119V15.9689C16.1589 15.0869 16.8739 14.3719 17.7559 14.3719H19.1469C20.0289 14.3719 20.7949 15.0359 20.7949 15.9179V17.4629C20.7949 18.3449 20.0289 19.0079 19.1469 19.0079H17.7559ZM23.2159 19.0079C22.3339 19.0079 21.6189 18.2939 21.6189 17.4119V15.9689C21.6189 15.0869 22.3339 14.3719 23.2159 14.3719H24.6579C25.5399 14.3719 26.2549 15.0869 26.2549 15.9689V17.4119C26.2549 18.2939 25.5399 19.0079 24.6579 19.0079H23.2159Z" fill="#FF7477"/>
</svg>
