<svg width="48" height="48" viewBox="0 0 48 48" fill="none" xmlns="http://www.w3.org/2000/svg"><path d="m24,13.77c-5.66,0-10.23,4.57-10.23,10.23s4.57,10.23,10.23,10.23,10.23-4.57,10.23-10.23-4.57-10.23-10.23-10.23Zm0,16.88c-3.66,0-6.65-2.98-6.65-6.65s2.98-6.65,6.65-6.65,6.65,2.98,6.65,6.65-2.99,6.65-6.65,6.65h0Zm13.04-17.3c0,1.33-1.07,2.39-2.39,2.39s-2.39-1.07-2.39-2.39,1.07-2.39,2.39-2.39,2.39,1.07,2.39,2.39Zm6.78,2.42c-.15-3.2-.88-6.03-3.22-8.36-2.33-2.33-5.16-3.06-8.36-3.22-3.29-.19-13.17-.19-16.47,0-3.19.15-6.02.88-8.36,3.21s-3.06,5.16-3.22,8.36c-.19,3.29-.19,13.17,0,16.47.15,3.2.88,6.03,3.22,8.36,2.34,2.33,5.16,3.06,8.36,3.22,3.29.19,13.17.19,16.47,0,3.2-.15,6.03-.88,8.36-3.22,2.33-2.33,3.06-5.16,3.22-8.36.19-3.29.19-13.16,0-16.46h0Zm-4.26,19.99c-.69,1.75-2.04,3.09-3.79,3.79-2.63,1.04-8.86.8-11.76.8s-9.15.23-11.76-.8c-1.75-.69-3.09-2.04-3.79-3.79-1.04-2.63-.8-8.86-.8-11.76s-.23-9.15.8-11.76c.69-1.75,2.04-3.09,3.79-3.79,2.63-1.04,8.86-.8,11.76-.8s9.15-.23,11.76.8c1.75.69,3.09,2.04,3.79,3.79,1.04,2.63.8,8.86.8,11.76s.24,9.15-.8,11.76Z" fill="currentColor"></path></svg>