<svg width="411" height="113" viewBox="0 0 411 113" fill="none" xmlns="http://www.w3.org/2000/svg">
<path d="M97.4446 39.4141C97.4446 34.4841 101.436 30.4941 106.36 30.4941H114.605C119.528 30.4941 123.52 34.4841 123.52 39.4141V60.4541C123.52 65.5341 121.504 70.3941 117.916 73.9841L115.942 75.9541L109.257 82.644L90.9816 101.144L86.2696 105.854C81.7236 110.394 75.5596 112.954 69.1316 112.954H55.1126C48.6846 112.954 42.5196 110.394 37.9746 105.854L33.2616 101.144L14.9876 82.644L8.30161 75.9541L6.32858 73.9841C2.74058 70.3941 0.724609 65.5341 0.724609 60.4541V56.5741V39.4141C0.724609 34.4841 4.71559 30.4941 9.63959 30.4941H17.8846C22.8076 30.4941 26.7996 34.4841 26.7996 39.4141V56.5741V57.6841L51.6596 82.5441C54.4346 85.3241 58.1976 86.874 62.1216 86.874C66.0456 86.874 69.8096 85.3241 72.5846 82.5441L97.4446 57.6841V39.4141Z" fill="#FF7477"/>
<path d="M42.665 56.7938C37.741 56.7938 33.75 52.8038 33.75 47.8738V39.6338C33.75 34.7138 37.741 30.7139 42.665 30.7139H50.91C55.834 30.7139 59.825 34.7138 59.825 39.6338V47.8738C59.825 52.8038 55.834 56.7938 50.91 56.7938H42.665Z" fill="#FF7477"/>
<path d="M73.3339 56.7938C68.4109 56.7938 64.4199 52.8038 64.4199 47.8738V39.6338C64.4199 34.7138 68.4109 30.7139 73.3339 30.7139H81.5799C86.5029 30.7139 90.4939 34.7138 90.4939 39.6338V47.8738C90.4939 52.8038 86.5029 56.7938 81.5799 56.7938H73.3339Z" fill="#FF7477"/>
<path d="M137.115 56.7938C132.192 56.7938 128.201 52.8038 128.201 47.8738V39.6338C128.201 34.7138 132.192 30.7139 137.115 30.7139H145.361C150.284 30.7139 154.275 34.7138 154.275 39.6338V47.8738C154.275 52.8038 150.284 56.7938 145.361 56.7938H137.115Z" fill="#FF7477"/>
<path d="M137.115 112.954C132.192 112.954 128.201 108.964 128.201 104.034V69.944C128.201 65.014 132.192 61.0239 137.115 61.0239H145.361C150.284 61.0239 154.275 65.014 154.275 69.944V104.034C154.275 108.964 150.284 112.954 145.361 112.954H137.115Z" fill="#FF7477"/>
<path d="M168.109 0.213867C163.186 0.213867 159.195 4.20378 159.195 9.12378V47.8439C159.195 52.7739 163.186 56.7638 168.109 56.7638H223.284C225.637 56.7638 227.895 57.6939 229.565 59.3539L253.504 83.1139C255.19 84.7939 256.138 87.0639 256.138 89.4438V104.044C256.138 108.974 260.129 112.964 265.052 112.964H273.27C278.193 112.964 282.184 108.974 282.184 104.044V78.7738C282.184 76.4038 281.245 74.1339 279.573 72.4639L240.224 33.1139C238.552 31.4439 236.285 30.5038 233.921 30.5038H194.156C189.233 30.5038 185.242 26.5139 185.242 21.5939V9.12378C185.242 4.20378 181.25 0.213867 176.327 0.213867H168.109Z" fill="#FF7477"/>
<path d="M168.109 60.8037C163.186 60.8037 159.195 64.7937 159.195 69.7137V104.044C159.195 108.974 163.186 112.964 168.109 112.964H241.374C246.297 112.964 250.288 108.974 250.288 104.044V95.7637C250.288 90.8337 246.297 86.8438 241.374 86.8438H194.365C189.441 86.8438 185.45 82.8537 185.45 77.9337V69.7137C185.45 64.7937 181.459 60.8037 176.536 60.8037H168.109Z" fill="#FF7477"/>
<path d="M369.882 30.4941H401.751C406.674 30.4941 410.665 34.4841 410.665 39.4141V47.4341C410.665 52.3541 406.674 56.3441 401.751 56.3441H369.882H327.094C322.171 56.3441 318.18 52.3541 318.18 47.4341V39.4141C318.18 34.4841 322.171 30.4941 327.094 30.4941H369.882Z" fill="#FF7477"/>
<path d="M318.18 69.494C318.18 64.574 322.171 60.584 327.094 60.584H344.031H360.968C365.891 60.584 369.882 64.574 369.882 69.494V73.724C369.882 78.644 365.891 82.6339 360.968 82.6339H344.031H327.094C322.171 82.6339 318.18 78.644 318.18 73.724V69.494Z" fill="#FF7477"/>
<path d="M295.625 30.5039C291.587 30.5039 288.312 33.784 288.312 37.814V86.9139V105.654C288.312 109.694 291.587 112.964 295.625 112.964H300.987H314.149H362.343H403.362C407.401 112.964 410.674 109.694 410.674 105.654V94.234C410.674 90.194 407.401 86.9139 403.362 86.9139H362.343H321.95C317.912 86.9139 314.638 83.644 314.638 79.604V37.814C314.638 33.784 311.364 30.5039 307.325 30.5039H295.625Z" fill="#FF7477"/>
</svg>
