<svg width="48" height="48" viewBox="0 0 48 48" fill="none" xmlns="http://www.w3.org/2000/svg"><path d="m14,33h-2v-16.2c.6-.4,1.2-.8,2-1.2v17.4Zm6,0h2V14.6c-.4.6-.8,1-1.2,1.8l-.8-.6v17.2Zm-4,0h2V15.4c-1-.2-1.2-.2-2,0v17.6Zm-8,0h2v-14c-.6.8-1.2,2-1.4,3l-.6-.4v11.4Zm-6-10.6c-1.2,1.2-2,2.8-2,4.6s.8,3.4,2,4.6v-9.2Zm37.8-1.2c-.4-5.8-4.8-10.2-10.2-10.2-2,0-4,.6-5.6,1.8v20.2h18.2c3.2,0,5.8-2.8,5.8-6.2,0-4.4-4.4-7.6-8.2-5.6Zm-33.8,0c-.6-.2-1-.2-2,.2v11.4c.8.2,1.2.2,2,.2v-11.8Z" fill="currentColor"></path></svg>